<svg xmlns="http://www.w3.org/2000/svg" viewBox="0 0 80.16 80.17"><defs><style>.cls-1{fill:#9b0028;}</style></defs><title>资源 3</title><g id="图层_2" data-name="图层 2"><g id="图层_1-2" data-name="图层 1"><path class="cls-1" d="M4,80.17A4,4,0,0,1,.42,74.38c15-30,0-68.52-.14-68.9a4,4,0,1,1,7.44-3C8.4,4.23,24.19,44.74,7.58,78A4,4,0,0,1,4,80.17Z"/><path class="cls-1" d="M76.17,80.17a4,4,0,0,1-3.54-2.12C55.22,45.24,70,4.36,70.66,2.63a4,4,0,0,1,7.5,2.78C78,6,64,44.75,79.7,74.3a4,4,0,0,1-3.53,5.87Z"/><path class="cls-1" d="M31.18,42.4c-5.09,0-10.16-.77-14-2.8a11.73,11.73,0,0,1-6.63-9.3C9.22,17.83,28.49,11.31,37.11,9V4a4,4,0,0,1,8,0V15.38l-3.14.7c-10.19,2.25-24,8.14-23.44,13.36.1.89.46,2,2.44,3.1,6.66,3.55,21.22,1.28,25.08-.76a4,4,0,1,1,3.73,7.08C46.28,40.7,38.72,42.4,31.18,42.4Z"/><path class="cls-1" d="M42.11,80.17a4,4,0,0,1-4-4V46.37l3.21-.64c4-.81,17.24-4.17,17.21-13.43a1.69,1.69,0,0,0-.72-1.56c-3.89-3-17.33-1.45-25.62.64a4,4,0,0,1-2-7.76c4-1,24.17-5.66,32.49.8a9.66,9.66,0,0,1,3.81,7.85c0,9.6-7.53,17.13-20.42,20.56V76.17A4,4,0,0,1,42.11,80.17Z"/></g></g></svg>